<svg
                  width="24"
                  height="25"
                  viewBox="0 0 24 25"
                  xmlns="http://www.w3.org/2000/svg"
                >
                  <path
                    d="M12 0.833984C15.1699 0.833984 15.5654 0.845651 16.809 0.903984C18.0515 0.962318 18.8974 1.15715 19.6417 1.44648C20.4117 1.74282 21.0604 2.14415 21.709 2.79165C22.3023 3.37486 22.7613 4.08034 23.0542 4.85898C23.3424 5.60215 23.5384 6.44915 23.5967 7.69165C23.6515 8.93532 23.6667 9.33082 23.6667 12.5007C23.6667 15.6705 23.655 16.066 23.5967 17.3097C23.5384 18.5522 23.3424 19.398 23.0542 20.1423C22.7622 20.9214 22.303 21.627 21.709 22.2097C21.1257 22.8027 20.4202 23.2617 19.6417 23.5548C18.8985 23.843 18.0515 24.039 16.809 24.0973C15.5654 24.1522 15.1699 24.1673 12 24.1673C8.83021 24.1673 8.43471 24.1557 7.19104 24.0973C5.94854 24.039 5.10271 23.843 4.35837 23.5548C3.57942 23.2625 2.87382 22.8034 2.29104 22.2097C1.69768 21.6265 1.23863 20.921 0.945874 20.1423C0.656541 19.3992 0.461707 18.5522 0.403374 17.3097C0.348541 16.066 0.333374 15.6705 0.333374 12.5007C0.333374 9.33082 0.345041 8.93532 0.403374 7.69165C0.461707 6.44798 0.656541 5.60332 0.945874 4.85898C1.23782 4.07986 1.69698 3.37419 2.29104 2.79165C2.87399 2.19809 3.57954 1.739 4.35837 1.44648C5.10271 1.15715 5.94737 0.962318 7.19104 0.903984C8.43471 0.849151 8.83021 0.833984 12 0.833984ZM12 6.66732C10.4529 6.66732 8.96921 7.2819 7.87525 8.37586C6.78129 9.46982 6.16671 10.9536 6.16671 12.5007C6.16671 14.0477 6.78129 15.5315 7.87525 16.6254C8.96921 17.7194 10.4529 18.334 12 18.334C13.5471 18.334 15.0309 17.7194 16.1248 16.6254C17.2188 15.5315 17.8334 14.0477 17.8334 12.5007C17.8334 10.9536 17.2188 9.46982 16.1248 8.37586C15.0309 7.2819 13.5471 6.66732 12 6.66732V6.66732ZM19.5834 6.37565C19.5834 5.98888 19.4297 5.61794 19.1562 5.34445C18.8827 5.07096 18.5118 4.91732 18.125 4.91732C17.7383 4.91732 17.3673 5.07096 17.0938 5.34445C16.8204 5.61794 16.6667 5.98888 16.6667 6.37565C16.6667 6.76243 16.8204 7.13336 17.0938 7.40685C17.3673 7.68034 17.7383 7.83398 18.125 7.83398C18.5118 7.83398 18.8827 7.68034 19.1562 7.40685C19.4297 7.13336 19.5834 6.76243 19.5834 6.37565ZM12 9.00065C12.9283 9.00065 13.8185 9.3694 14.4749 10.0258C15.1313 10.6822 15.5 11.5724 15.5 12.5007C15.5 13.4289 15.1313 14.3191 14.4749 14.9755C13.8185 15.6319 12.9283 16.0007 12 16.0007C11.0718 16.0007 10.1815 15.6319 9.52517 14.9755C8.86879 14.3191 8.50004 13.4289 8.50004 12.5007C8.50004 11.5724 8.86879 10.6822 9.52517 10.0258C10.1815 9.3694 11.0718 9.00065 12 9.00065V9.00065Z"
                  />
                </svg>
