<svg xmlns="http://www.w3.org/2000/svg" viewBox="0 9.800000190734863 196.6999969482422 38.95000076293945" data-asc="0.968"><g fill="#000000"><g fill="#000000" transform="translate(0, 0)"><path d="M0 48.40L0 13.40L6.50 13.40L6.50 48.40L0 48.40ZM30.50 21.40Q33.70 21.40 36.23 22.65Q38.75 23.90 40.20 26.47Q41.65 29.05 41.65 33.10L41.65 48.40L35.40 48.40L35.40 33.90Q35.40 30.35 33.73 28.60Q32.05 26.85 29.05 26.85Q26.85 26.85 25.15 27.75Q23.45 28.65 22.52 30.42Q21.60 32.20 21.60 34.90L21.60 48.40L15.35 48.40L15.35 21.70L21.30 21.70L21.30 28.90L20.25 26.70Q21.65 24.15 24.33 22.77Q27 21.40 30.50 21.40ZM59.65 48.75Q55.25 48.75 52.85 46.48Q50.45 44.20 50.45 39.75L50.45 15.80L56.70 15.80L56.70 39.60Q56.70 41.50 57.67 42.55Q58.65 43.60 60.40 43.60Q62.50 43.60 63.90 42.50L65.65 46.95Q64.55 47.85 62.95 48.30Q61.35 48.75 59.65 48.75M46.05 26.90L46.05 21.90L63.85 21.90L63.85 26.90L46.05 26.90ZM83.35 48.75Q78.90 48.75 75.58 46.98Q72.25 45.20 70.42 42.10Q68.60 39 68.60 35.05Q68.60 31.05 70.38 27.97Q72.15 24.90 75.28 23.15Q78.40 21.40 82.40 21.40Q86.30 21.40 89.35 23.10Q92.40 24.80 94.15 27.90Q95.90 31.00 95.90 35.20Q95.90 35.60 95.88 36.10Q95.85 36.60 95.80 37.05L73.55 37.05L73.55 32.90L92.50 32.90L90.05 34.20Q90.10 31.90 89.10 30.15Q88.10 28.40 86.38 27.40Q84.65 26.40 82.40 26.40Q80.10 26.40 78.38 27.40Q76.65 28.40 75.67 30.17Q74.70 31.95 74.70 34.35L74.70 35.35Q74.70 37.75 75.80 39.60Q76.90 41.45 78.90 42.45Q80.90 43.45 83.50 43.45Q85.75 43.45 87.55 42.75Q89.35 42.05 90.75 40.55L94.10 44.40Q92.30 46.50 89.58 47.63Q86.85 48.75 83.35 48.75ZM101.90 48.40L101.90 21.70L107.85 21.70L107.85 29.05L107.15 26.90Q108.35 24.20 110.93 22.80Q113.50 21.40 117.35 21.40L117.35 27.35Q116.95 27.25 116.60 27.22Q116.25 27.20 115.90 27.20Q112.35 27.20 110.25 29.27Q108.15 31.35 108.15 35.45L108.15 48.40L101.90 48.40ZM122.90 48.40L122.90 21.70L129.15 21.70L129.15 48.40L122.90 48.40M126.05 17.30Q124.30 17.30 123.18 16.20Q122.05 15.10 122.05 13.55Q122.05 11.95 123.18 10.88Q124.30 9.80 126.05 9.80Q127.80 9.80 128.93 10.82Q130.05 11.85 130.05 13.40Q130.05 15.05 128.95 16.17Q127.85 17.30 126.05 17.30ZM149.35 48.75Q145.25 48.75 142.05 46.98Q138.85 45.20 137 42.10Q135.15 39 135.15 35.05Q135.15 31.05 137 27.97Q138.85 24.90 142.05 23.15Q145.25 21.40 149.35 21.40Q153.50 21.40 156.72 23.15Q159.95 24.90 161.78 27.95Q163.60 31.00 163.60 35.05Q163.60 39 161.78 42.10Q159.95 45.20 156.72 46.98Q153.50 48.75 149.35 48.75M149.35 43.40Q151.65 43.40 153.45 42.40Q155.25 41.40 156.28 39.50Q157.30 37.60 157.30 35.05Q157.30 32.45 156.28 30.57Q155.25 28.70 153.45 27.70Q151.65 26.70 149.40 26.70Q147.10 26.70 145.32 27.70Q143.55 28.70 142.50 30.57Q141.45 32.45 141.45 35.05Q141.45 37.60 142.50 39.50Q143.55 41.40 145.32 42.40Q147.10 43.40 149.35 43.40ZM169.60 48.40L169.60 21.70L175.55 21.70L175.55 29.05L174.85 26.90Q176.05 24.20 178.63 22.80Q181.20 21.40 185.05 21.40L185.05 27.35Q184.65 27.25 184.30 27.22Q183.95 27.20 183.60 27.20Q180.05 27.20 177.95 29.27Q175.85 31.35 175.85 35.45L175.85 48.40L169.60 48.40ZM192.60 48.75Q190.90 48.75 189.70 47.57Q188.50 46.40 188.50 44.60Q188.50 42.70 189.70 41.57Q190.90 40.45 192.60 40.45Q194.30 40.45 195.50 41.57Q196.70 42.70 196.70 44.60Q196.70 46.40 195.50 47.57Q194.30 48.75 192.60 48.75Z"/></g></g></svg>
