<svg
                  width="24"
                  height="21"
                  viewBox="0 0 24 21"
                 
                  xmlns="http://www.w3.org/2000/svg"
                >
                  <path
                    d="M23.8557 3.09907C22.965 3.49305 22.0205 3.75179 21.0534 3.86674C22.0728 3.25708 22.8357 2.29759 23.2001 1.16707C22.2434 1.7364 21.1946 2.1354 20.1014 2.35124C19.3671 1.56558 18.3938 1.04453 17.3328 0.869085C16.2719 0.693643 15.1827 0.873642 14.2345 1.3811C13.2864 1.88855 12.5325 2.69503 12.09 3.67516C11.6475 4.65529 11.5413 5.75415 11.7877 6.8009C9.84769 6.70367 7.94978 6.19951 6.21723 5.32118C4.48468 4.44284 2.95621 3.20996 1.73106 1.70257C1.2974 2.44743 1.06951 3.29417 1.07073 4.15607C1.07073 5.84774 1.93173 7.34224 3.24073 8.21724C2.46607 8.19285 1.70847 7.98365 1.03106 7.60707V7.66774C1.0313 8.79439 1.42116 9.88629 2.13455 10.7583C2.84794 11.6303 3.84096 12.2288 4.94523 12.4522C4.22611 12.6471 3.47209 12.6758 2.74023 12.5362C3.05157 13.506 3.6584 14.3541 4.47575 14.9619C5.2931 15.5696 6.28004 15.9065 7.29839 15.9254C6.28629 16.7203 5.12743 17.3079 3.88809 17.6546C2.64874 18.0013 1.35321 18.1004 0.0755615 17.9461C2.30588 19.3804 4.90217 20.1419 7.55389 20.1394C16.5291 20.1394 21.4372 12.7042 21.4372 6.25607C21.4372 6.04607 21.4314 5.83374 21.4221 5.62607C22.3774 4.9356 23.2019 4.08026 23.8569 3.10024L23.8557 3.09907Z"
                  />
                </svg>
